<svg xmlns="http://www.w3.org/2000/svg" width="565" height="179.997" viewBox="0 0 565 179.997">
    <g data-name="1">
        <path data-name="패스 51" d="M84.359 197.743H61.64L40.762 166.6H19.08v31.147H0V118h58.847a20.825 20.825 0 0 1 16.553 7.681 27.081 27.081 0 0 1 6.549 18.149 19.522 19.522 0 0 1-5.629 14.114 25.233 25.233 0 0 1-14.251 7.288zM58.73 143.036a9.912 9.912 0 0 0-4.193-8.568q-4.2-3.008-11.323-3.008H19.08v22.25h24.709a19.365 19.365 0 0 0 9.655-2.388q5.289-2.956 5.286-8.285" transform="translate(0 -117.996)" style="fill:#fff"/>
        <path data-name="패스 52" d="M254.171 197.743h-39.192a39.306 39.306 0 0 1-17.472-4.106 29.806 29.806 0 0 1-13.848-14.124 47.543 47.543 0 0 1-4.768-21.3 46.621 46.621 0 0 1 4.6-20.85 32.372 32.372 0 0 1 14.021-14.808 41.356 41.356 0 0 1 9.482-3.529 47.354 47.354 0 0 1 10.4-1.027h36.317v14.262H220.15a20.991 20.991 0 0 0-7.527 1.177 17.494 17.494 0 0 0-6.032 4.2 18.262 18.262 0 0 0-4.141 5.878 19.063 19.063 0 0 0-1.15 7.109h52.871v14.268H201.3a20.112 20.112 0 0 0 1.04 6.786 18.9 18.9 0 0 0 3.749 5.987 20.962 20.962 0 0 0 5.659 4.682 14.451 14.451 0 0 0 6.981 1.593h35.442z" transform="translate(-92.805 -117.996)" style="fill:#fff"/>
        <path data-name="패스 53" d="M456.652 197.743H439.3v-60.922l-22.759 60.922h-20.686l-23.449-62.292v62.292h-16.779V118h26.9l23.558 63.091L428.725 118h27.927z" transform="translate(-184.494 -117.996)" style="fill:#fff"/>
        <path data-name="패스 54" d="M660.666 197.743h-39.19a39.3 39.3 0 0 1-17.469-4.106 29.816 29.816 0 0 1-13.854-14.124 47.544 47.544 0 0 1-4.768-21.3 46.622 46.622 0 0 1 4.6-20.85 32.369 32.369 0 0 1 14.026-14.808 41.281 41.281 0 0 1 9.48-3.529 47.368 47.368 0 0 1 10.4-1.027h36.316v14.262h-33.559a21.015 21.015 0 0 0-7.529 1.177 17.546 17.546 0 0 0-6.032 4.2 18.282 18.282 0 0 0-4.139 5.878 19.122 19.122 0 0 0-1.15 7.109h52.869v14.268H607.8a20.05 20.05 0 0 0 1.04 6.786 18.87 18.87 0 0 0 3.749 5.987 21 21 0 0 0 5.659 4.682 14.443 14.443 0 0 0 6.981 1.593h35.44z" transform="translate(-303.688 -117.996)" style="fill:#fff"/>
        <path data-name="패스 55" d="M817.415 120.617q9.655 3.649 15.286 14.923a51.892 51.892 0 0 1 5.171 23.471q0 14.007-5.752 24.375-6.2 11.393-17.122 13.558a52.01 52.01 0 0 1-9.538.8h-43.327V118h40.912a41.344 41.344 0 0 1 14.369 2.621m2.068 38.677q0-11.058-3.336-18.135-4.254-8.906-12.869-8.9h-22.414v51.679l23.911.115q7.809 0 11.608-8.1 3.1-6.612 3.1-16.656" transform="translate(-395.382 -117.996)" style="fill:#fff"/>
    </g>
    <g data-name="2">
        <path data-name="패스 56" d="M411.744 49.182c0-17.177 10.928-28.77 27.793-28.875 15.808.1 27.158 10.011 27.158 28.665V53.4h-37.764v.211c.106 7.166 4.455 11.908 11.455 11.8 4.881.1 8.381-2 9.762-5.269h16.336C464.363 71 454.708 78.056 440.175 78.056c-17.61 0-28.431-10.959-28.431-28.874m38.615-6.112a9.946 9.946 0 0 0-10.4-10.116c-6.153 0-10.715 4.319-11.032 10.116z" transform="translate(-329.488 101.94)" style="fill:#ae6af3"/>
        <path data-name="패스 57" d="M359.427 0h18.809l31.849 76.458h-19.154l-7.386-17.768h-29.309l-7.386 17.768h-19.27zm-1.5 45.049h21.924L368.89 18.341z" transform="translate(-327.58 102.532)" style="fill:#ae6af3"/>
        <path data-name="패스 58" d="M526.155 33.174h-27.464c-6.923 0-8.539.916-8.539 4.93a4.924 4.924 0 0 0 2.538 4.583c1.04.688 2.772.918 7.5.918h9.116c12.348 0 19.386 5.731 19.386 15.933 0 6.647-3.576 13.3-8.654 15.818-2.309 1.261-6.232 1.72-13.04 1.72h-31.963V65.155H502.5c5.076 0 6.922-.115 8.307-.459 1.616-.342 2.769-2.062 2.769-4.241a5.221 5.221 0 0 0-2.654-4.813c-1.153-.574-2.769-.688-6.692-.688h-9.463c-7.154 0-10.5-.8-13.848-3.21-4.154-2.866-6.692-8.253-6.692-14.213a17.021 17.021 0 0 1 6.116-13.412c2.654-2.062 6.116-2.866 12.808-2.866h33z" transform="translate(-330.835 101.913)" style="fill:#ae6af3"/>
        <path data-name="패스 59" d="M545.554 0h15.463v20.634h14.308v11.921h-14.307v20.289c-.23 9.286 1.27 11.348 8.192 11.692h6.116v11.922h-11.193c-13.27.115-19.041-6.306-18.579-20.978V32.555h-9.807V20.634h9.807z" transform="translate(-332.204 102.532)" style="fill:#ae6af3"/>
        <path data-name="패스 60" d="M601.981 20.634h15.81c16.271-.345 22.847 5.731 23.077 20.977v34.847h-15.46V44.707c.229-9.515-2.078-12.151-10.964-12.151h-12.463v43.9H586.52V0h15.461z" transform="translate(-333.328 102.532)" style="fill:#ae6af3"/>
        <path data-name="패스 61" d="M721.128 0h15.463v20.634H750.9v11.921h-14.309v20.289c-.23 9.286 1.27 11.348 8.193 11.692h6.116v11.922h-11.192c-13.27.115-19.041-6.306-18.579-20.978V32.555h-9.807V20.634h9.807z" transform="translate(-336.104 102.532)" style="fill:#ae6af3"/>
        <path data-name="패스 62" d="M762.094 0h15.462v14.9h-15.462zm15.463 76.458H762.1V20.634h15.462z" transform="translate(-337.241 102.532)" style="fill:#ae6af3"/>
        <path data-name="패스 63" d="M840.261 33.174H821.8c-11.542 0-16.386 4.7-16.386 15.933 0 6.076 1.844 10.432 5.654 13.182 3.116 2.18 6 2.866 12.461 2.866h16.733v11.922h-21.119c-11.309 0-17.193-2.064-22.269-7.681-4.848-5.386-7.271-12.036-7.271-20.4 0-9.743 3-17.423 8.656-22.238 4.614-3.9 10.5-5.5 20.884-5.5h21.117z" transform="translate(-337.808 101.913)" style="fill:#ae6af3"/>
        <path data-name="패스 64" d="M901.634 33.174h-27.465c-6.923 0-8.539.916-8.539 4.93a4.925 4.925 0 0 0 2.538 4.583c1.04.688 2.772.918 7.5.918h9.117c12.347 0 19.386 5.731 19.386 15.933 0 6.647-3.578 13.3-8.654 15.818-2.307 1.261-6.232 1.72-13.04 1.72h-31.964V65.155h27.465c5.076 0 6.923-.115 8.307-.459 1.615-.342 2.769-2.062 2.769-4.241a5.221 5.221 0 0 0-2.653-4.813c-1.153-.574-2.769-.688-6.692-.688h-9.463c-7.154 0-10.5-.8-13.848-3.21-4.154-2.866-6.692-8.253-6.692-14.213a17.021 17.021 0 0 1 6.116-13.412c2.654-2.062 6.117-2.866 12.808-2.866h33z" transform="translate(-339.171 101.913)" style="fill:#ae6af3"/>
        <path data-name="패스 65" d="M649.766 49.182c0-17.177 10.928-28.77 27.793-28.875 15.808.1 27.158 10.011 27.158 28.665V53.4h-37.764v.211c.106 7.166 4.455 11.908 11.456 11.8 4.88.1 8.38-2 9.761-5.269h16.336C702.385 71 692.73 78.056 678.2 78.056c-17.611 0-28.431-10.959-28.431-28.874m38.616-6.112a9.947 9.947 0 0 0-10.4-10.116c-6.154 0-10.716 4.319-11.033 10.116z" transform="translate(-334.732 101.94)" style="fill:#ae6af3"/>
    </g>
</svg>
